<?xml version="1.0" encoding="UTF-8"?>
<svg xmlns="http://www.w3.org/2000/svg" xmlns:xlink="http://www.w3.org/1999/xlink" width="224.87999pt" height="225pt" viewBox="0 0 224.87999 225" version="1.2">
<defs>
<clipPath id="clip1">
  <path d="M 70 71.460938 L 155 71.460938 L 155 153.914062 L 70 153.914062 Z M 70 71.460938 "/>
</clipPath>
</defs>
<g id="surface1">
<g clip-path="url(#clip1)" clip-rule="nonzero">
<path style=" stroke:none;fill-rule:nonzero;fill:rgb(0%,0%,0%);fill-opacity:1;" d="M 126.007812 153.964844 C 125.867188 154.003906 125.726562 154.019531 125.582031 154.019531 L 125.265625 153.730469 L 125.265625 151.261719 C 125.265625 148.960938 125.304688 145.480469 125.304688 141.5 C 125.351562 139.117188 124.867188 136.847656 123.855469 134.695312 C 132.605469 133.101562 142.40625 128.332031 142.40625 111.253906 C 142.441406 109 142.09375 106.808594 141.359375 104.679688 C 140.625 102.550781 139.550781 100.613281 138.132812 98.867188 C 138.664062 96.863281 138.859375 94.828125 138.71875 92.757812 C 138.578125 90.6875 138.109375 88.699219 137.3125 86.789062 C 137.09375 86.222656 136.695312 85.84375 136.121094 85.65625 C 135.605469 85.511719 135.082031 85.445312 134.546875 85.460938 C 132.464844 85.644531 130.453125 86.125 128.503906 86.890625 C 126.558594 87.660156 124.753906 88.6875 123.097656 89.972656 C 119.597656 89.09375 116.046875 88.644531 112.441406 88.625 C 108.832031 88.632812 105.277344 89.078125 101.777344 89.964844 C 100.117188 88.675781 98.3125 87.648438 96.363281 86.882812 C 94.414062 86.113281 92.398438 85.636719 90.3125 85.453125 C 89.777344 85.4375 89.253906 85.503906 88.738281 85.648438 C 88.164062 85.835938 87.769531 86.214844 87.546875 86.785156 C 86.75 88.695312 86.285156 90.6875 86.144531 92.753906 C 86.007812 94.824219 86.207031 96.859375 86.742188 98.863281 C 85.324219 100.609375 84.25 102.546875 83.515625 104.675781 C 82.78125 106.804688 82.429688 108.996094 82.464844 111.25 C 82.464844 128.320312 92.261719 133.113281 100.992188 134.722656 C 100.507812 135.710938 100.152344 136.742188 99.925781 137.816406 C 98.871094 138.207031 97.78125 138.40625 96.660156 138.421875 C 95.054688 138.457031 93.644531 137.949219 92.421875 136.898438 C 92.308594 136.742188 92.171875 136.613281 92.011719 136.511719 C 91.75 136.21875 91.503906 135.914062 91.269531 135.597656 L 91.195312 135.503906 C 91.175781 135.46875 91.152344 135.433594 91.125 135.398438 L 90.804688 134.980469 C 90.699219 134.859375 90.601562 134.730469 90.511719 134.59375 C 90.074219 133.828125 89.554688 133.121094 88.953125 132.476562 C 88.355469 131.832031 87.6875 131.265625 86.953125 130.78125 C 86.222656 130.292969 85.441406 129.898438 84.617188 129.597656 C 83.792969 129.296875 82.945312 129.09375 82.074219 128.992188 C 80.035156 128.992188 78.6875 129.71875 78.28125 131.039062 C 77.644531 133.113281 79.867188 134.65625 80.941406 135.371094 C 81.875 136.019531 82.671875 136.800781 83.335938 137.722656 C 84.003906 138.644531 84.5 139.652344 84.824219 140.746094 C 85.058594 141.355469 85.335938 141.941406 85.664062 142.507812 C 85.988281 143.074219 86.355469 143.609375 86.765625 144.113281 C 87.175781 144.621094 87.625 145.089844 88.109375 145.527344 C 88.59375 145.960938 89.109375 146.351562 89.65625 146.703125 C 90.203125 147.054688 90.773438 147.363281 91.367188 147.621094 C 91.960938 147.882812 92.574219 148.09375 93.199219 148.257812 C 93.828125 148.417969 94.464844 148.527344 95.109375 148.589844 C 95.753906 148.648438 96.402344 148.65625 97.046875 148.613281 C 97.894531 148.613281 98.738281 148.558594 99.578125 148.445312 L 99.625 153.746094 L 99.285156 154.023438 C 99.164062 154.023438 99.023438 154.023438 99.144531 154.054688 C 98.367188 153.792969 97.59375 153.507812 96.828125 153.199219 C 96.066406 152.890625 95.3125 152.558594 94.566406 152.207031 C 93.820312 151.851562 93.089844 151.476562 92.367188 151.082031 C 91.644531 150.683594 90.933594 150.265625 90.234375 149.828125 C 89.535156 149.386719 88.851562 148.929688 88.179688 148.449219 C 87.507812 147.96875 86.847656 147.46875 86.207031 146.953125 C 85.5625 146.433594 84.9375 145.898438 84.324219 145.339844 C 83.714844 144.785156 83.117188 144.210938 82.539062 143.621094 C 81.960938 143.03125 81.402344 142.421875 80.859375 141.800781 C 80.316406 141.175781 79.792969 140.535156 79.285156 139.882812 C 78.78125 139.226562 78.292969 138.554688 77.828125 137.871094 C 77.363281 137.1875 76.914062 136.492188 76.488281 135.78125 C 76.0625 135.070312 75.65625 134.347656 75.273438 133.613281 C 74.890625 132.878906 74.527344 132.136719 74.1875 131.378906 C 73.84375 130.625 73.527344 129.859375 73.230469 129.082031 C 72.933594 128.308594 72.660156 127.527344 72.410156 126.734375 C 72.160156 125.945312 71.929688 125.148438 71.726562 124.34375 C 71.523438 123.539062 71.34375 122.730469 71.183594 121.914062 C 71.027344 121.097656 70.894531 120.28125 70.785156 119.457031 C 70.675781 118.632812 70.589844 117.808594 70.527344 116.980469 C 70.464844 116.152344 70.429688 115.324219 70.414062 114.492188 C 70.402344 113.664062 70.410156 112.832031 70.445312 112.003906 C 70.480469 111.175781 70.539062 110.347656 70.625 109.519531 C 70.707031 108.695312 70.8125 107.871094 70.945312 107.050781 C 71.074219 106.230469 71.230469 105.417969 71.410156 104.605469 C 71.585938 103.792969 71.789062 102.992188 72.011719 102.191406 C 72.238281 101.394531 72.488281 100.601562 72.757812 99.816406 C 73.027344 99.035156 73.324219 98.257812 73.636719 97.492188 C 73.953125 96.726562 74.292969 95.96875 74.652344 95.222656 C 75.011719 94.476562 75.394531 93.742188 75.796875 93.015625 C 76.199219 92.292969 76.625 91.582031 77.070312 90.882812 C 77.511719 90.183594 77.976562 89.5 78.460938 88.828125 C 78.945312 88.15625 79.449219 87.5 79.972656 86.859375 C 80.496094 86.214844 81.035156 85.589844 81.59375 84.980469 C 82.152344 84.371094 82.726562 83.78125 83.320312 83.203125 C 83.914062 82.628906 84.523438 82.070312 85.148438 81.53125 C 85.777344 80.992188 86.417969 80.472656 87.074219 79.972656 C 87.726562 79.46875 88.398438 78.988281 89.082031 78.527344 C 89.765625 78.066406 90.460938 77.625 91.171875 77.203125 C 91.882812 76.785156 92.601562 76.382812 93.335938 76.007812 C 94.070312 75.628906 94.8125 75.273438 95.566406 74.941406 C 96.320312 74.605469 97.082031 74.296875 97.851562 74.007812 C 98.625 73.71875 99.402344 73.453125 100.191406 73.210938 C 100.976562 72.96875 101.769531 72.75 102.570312 72.554688 C 103.371094 72.359375 104.175781 72.1875 104.984375 72.039062 C 105.792969 71.890625 106.609375 71.769531 107.425781 71.667969 C 108.242188 71.570312 109.0625 71.496094 109.882812 71.441406 C 110.703125 71.390625 111.523438 71.367188 112.347656 71.363281 C 113.171875 71.359375 113.992188 71.382812 114.816406 71.429688 C 115.636719 71.476562 116.457031 71.546875 117.273438 71.640625 C 118.089844 71.738281 118.90625 71.855469 119.714844 72 C 120.523438 72.140625 121.332031 72.308594 122.132812 72.5 C 122.933594 72.691406 123.726562 72.90625 124.515625 73.144531 C 125.304688 73.382812 126.085938 73.644531 126.855469 73.925781 C 127.628906 74.210938 128.394531 74.519531 129.148438 74.847656 C 129.90625 75.175781 130.648438 75.527344 131.386719 75.902344 C 132.121094 76.277344 132.84375 76.671875 133.554688 77.085938 C 134.265625 77.503906 134.964844 77.941406 135.652344 78.398438 C 136.339844 78.855469 137.011719 79.335938 137.667969 79.832031 C 138.328125 80.332031 138.972656 80.847656 139.601562 81.382812 C 140.230469 81.917969 140.839844 82.472656 141.4375 83.042969 C 142.035156 83.617188 142.613281 84.207031 143.175781 84.8125 C 143.738281 85.417969 144.28125 86.042969 144.808594 86.679688 C 145.332031 87.320312 145.839844 87.972656 146.328125 88.640625 C 146.816406 89.308594 147.285156 89.992188 147.730469 90.6875 C 148.179688 91.386719 148.605469 92.09375 149.015625 92.816406 C 149.421875 93.539062 149.804688 94.269531 150.171875 95.015625 C 150.535156 95.761719 150.878906 96.515625 151.199219 97.28125 C 151.519531 98.042969 151.816406 98.816406 152.089844 99.601562 C 152.367188 100.382812 152.617188 101.171875 152.847656 101.96875 C 153.078125 102.769531 153.285156 103.570312 153.464844 104.378906 C 153.648438 105.191406 153.808594 106.003906 153.941406 106.824219 C 154.078125 107.644531 154.191406 108.464844 154.277344 109.289062 C 154.363281 110.117188 154.429688 110.945312 154.46875 111.773438 C 154.507812 112.601562 154.523438 113.433594 154.511719 114.261719 C 154.503906 115.09375 154.472656 115.921875 154.414062 116.75 C 154.355469 117.578125 154.273438 118.40625 154.171875 119.230469 C 154.066406 120.050781 153.9375 120.871094 153.78125 121.6875 C 153.628906 122.503906 153.453125 123.3125 153.253906 124.121094 C 153.054688 124.925781 152.832031 125.722656 152.582031 126.515625 C 152.335938 127.308594 152.066406 128.09375 151.777344 128.867188 C 151.484375 129.644531 151.167969 130.410156 150.832031 131.167969 C 150.496094 131.925781 150.136719 132.675781 149.757812 133.410156 C 149.375 134.148438 148.976562 134.871094 148.554688 135.585938 C 148.132812 136.296875 147.6875 136.996094 147.226562 137.683594 C 146.761719 138.367188 146.28125 139.039062 145.777344 139.699219 C 145.277344 140.355469 144.753906 141 144.214844 141.625 C 143.675781 142.253906 143.117188 142.863281 142.542969 143.457031 C 141.96875 144.050781 141.375 144.628906 140.769531 145.1875 C 140.160156 145.746094 139.535156 146.285156 138.894531 146.808594 C 138.253906 147.328125 137.601562 147.832031 136.933594 148.316406 C 136.261719 148.796875 135.582031 149.261719 134.882812 149.703125 C 134.1875 150.148438 133.480469 150.570312 132.757812 150.96875 C 132.039062 151.371094 131.308594 151.75 130.5625 152.105469 C 129.820312 152.464844 129.070312 152.800781 128.308594 153.113281 C 127.542969 153.425781 126.773438 153.714844 125.996094 153.980469 Z M 126.007812 153.964844 "/>
</g>
</g>
</svg>
