<?xml version="1.0" encoding="UTF-8"?>
<svg xmlns="http://www.w3.org/2000/svg" xmlns:xlink="http://www.w3.org/1999/xlink" width="224.87999pt" height="225pt" viewBox="0 0 224.87999 225" version="1.2">
<defs>
<clipPath id="clip1">
  <path d="M 67.464844 67.523438 L 157.414062 67.523438 L 157.414062 157.476562 L 67.464844 157.476562 Z M 67.464844 67.523438 "/>
</clipPath>
</defs>
<g id="surface1">
<g clip-path="url(#clip1)" clip-rule="nonzero">
<path style=" stroke:none;fill-rule:nonzero;fill:rgb(0%,0%,0%);fill-opacity:1;" d="M 149.238281 67.523438 L 75.640625 67.523438 C 71.125 67.523438 67.464844 71.183594 67.464844 75.703125 L 67.464844 149.296875 C 67.464844 153.816406 71.125 157.476562 75.640625 157.476562 L 149.238281 157.476562 C 153.757812 157.476562 157.414062 153.816406 157.414062 149.296875 L 157.414062 75.703125 C 157.414062 71.183594 153.757812 67.523438 149.238281 67.523438 Z M 95.898438 141.121094 L 83.835938 141.121094 L 83.835938 102.3125 L 95.898438 102.3125 Z M 89.742188 96.761719 C 85.855469 96.761719 82.710938 93.609375 82.710938 89.730469 C 82.710938 85.851562 85.859375 82.703125 89.742188 82.703125 C 93.621094 82.703125 96.773438 85.855469 96.773438 89.730469 C 96.773438 93.609375 93.621094 96.761719 89.742188 96.761719 Z M 141.078125 141.121094 L 129.023438 141.121094 L 129.023438 122.246094 C 129.023438 117.746094 128.941406 111.957031 122.753906 111.957031 C 116.480469 111.957031 115.515625 116.859375 115.515625 121.921875 L 115.515625 141.121094 L 103.460938 141.121094 L 103.460938 102.3125 L 115.03125 102.3125 L 115.03125 107.613281 L 115.195312 107.613281 C 116.808594 104.5625 120.738281 101.347656 126.605469 101.347656 C 138.820312 101.347656 141.078125 109.382812 141.078125 119.835938 Z M 141.078125 141.121094 "/>
</g>
</g>
</svg>
