<?xml version="1.0" encoding="UTF-8"?>
<svg xmlns="http://www.w3.org/2000/svg" xmlns:xlink="http://www.w3.org/1999/xlink" width="375pt" height="374.999991pt" viewBox="0 0 375 374.999991" version="1.2">
<defs>
<clipPath id="clip1">
  <path d="M 34.410156 21.863281 L 341.050781 21.863281 L 341.050781 352.359375 L 34.410156 352.359375 Z M 34.410156 21.863281 "/>
</clipPath>
</defs>
<g id="surface1">
<path style=" stroke:none;fill-rule:evenodd;fill:rgb(63.529968%,91.758728%,68.629456%);fill-opacity:1;" d="M 177.980469 274.492188 C 179.980469 275.703125 183.785156 277.972656 186.71875 275.945312 C 186.730469 272.132812 178.117188 269.601562 177.980469 274.492188 Z M 182.347656 264.300781 C 182.511719 265.675781 181.527344 265.90625 181.617188 267.210938 C 184.027344 268.714844 188.238281 266.851562 188.902344 264.300781 C 187.671875 261.898438 184.4375 263.589844 182.347656 264.300781 Z M 97.902344 231.550781 C 97.664062 234.210938 99.859375 234.445312 101.539062 235.191406 C 101.75 232.488281 105.390625 233.21875 105.179688 230.09375 C 103.09375 229.304688 99.648438 229.980469 97.902344 231.550781 Z M 92.800781 222.09375 C 93.773438 222.09375 94.746094 222.09375 95.71875 222.09375 C 96.554688 221.230469 96.539062 219.519531 96.445312 217.726562 C 94.527344 215.855469 90.480469 218.492188 92.800781 222.09375 Z M 190.355469 194.4375 C 181.589844 195.609375 174.625 192.117188 167.789062 190.070312 C 146.820312 183.792969 126.925781 182.914062 118.285156 200.988281 C 106.128906 226.402344 118.617188 269.632812 151.042969 259.9375 C 164.222656 255.996094 166.824219 241.542969 185.257812 242.46875 C 198.800781 243.148438 206.492188 253.699219 218.019531 256.296875 C 227.191406 258.363281 239.792969 255.355469 247.140625 248.289062 C 269.167969 227.105469 253.558594 176.792969 223.117188 181.339844 C 222.742188 181.390625 222.257812 182.078125 222.390625 182.066406 C 206.457031 183.5 203.046875 192.742188 190.355469 194.4375 Z M 103.722656 182.792969 C 104.722656 185.113281 107.574219 186.378906 110.277344 184.976562 C 110.796875 180.570312 103.679688 176.375 103.722656 182.792969 Z M 105.90625 175.515625 C 108.53125 177.234375 113.089844 175.71875 115.371094 174.789062 C 115.292969 170.503906 106.394531 171.914062 105.90625 175.515625 Z M 248.597656 168.96875 C 248.203125 172.539062 253.410156 170.945312 255.148438 170.421875 C 255 165.855469 250.066406 165.25 248.597656 168.96875 Z M 250.78125 163.144531 C 251.347656 163.304688 251.625 163.753906 251.507812 164.601562 C 255.421875 164.871094 257.050781 162.863281 257.332031 159.503906 C 253.894531 159.464844 251.742188 160.710938 250.78125 163.144531 Z M 125.5625 165.328125 C 126.046875 167.59375 126.988281 169.425781 129.203125 169.695312 C 135.664062 170.476562 131.488281 162.957031 134.300781 156.59375 C 139.359375 145.144531 153.203125 151.355469 150.316406 165.328125 C 152.542969 165.855469 152.457031 164.070312 154.6875 164.601562 C 162.109375 138.941406 119.902344 138.84375 125.5625 165.328125 Z M 216.5625 140.582031 C 214.203125 145.636719 208.675781 154.015625 212.921875 160.960938 C 220.785156 159.363281 217.46875 146.585938 224.574219 144.222656 C 233.332031 146.058594 231.050781 154.363281 231.851562 161.6875 C 234.078125 162.214844 234.503906 160.941406 236.21875 160.960938 C 240.792969 146.015625 227.925781 133.132812 216.5625 140.582031 Z M 147.402344 43.792969 C 146.050781 46.324219 141.835938 45.988281 140.851562 48.890625 C 146.828125 68.144531 149.128906 91.074219 156.867188 108.5625 C 167.835938 106.707031 181.679688 102.644531 194.722656 104.199219 C 201.671875 105.019531 207.628906 109.707031 212.921875 107.109375 C 213.84375 96.816406 218.898438 86.460938 220.203125 74.359375 C 216.121094 71.867188 213.84375 75.257812 210.011719 73.632812 C 205.363281 64.429688 219.367188 63.746094 224.574219 59.804688 C 230.699219 62.414062 237.921875 63.925781 236.21875 74.359375 C 233.679688 76.671875 229.683594 77.527344 226.757812 79.453125 C 224.949219 89.292969 222.558594 98.542969 223.117188 110.746094 C 225.707031 112.765625 230.109375 112.972656 234.035156 113.65625 C 236.125 116.796875 238.5625 116.152344 241.316406 118.753906 C 244.878906 122.113281 246.410156 129.640625 250.054688 130.398438 C 255.785156 131.582031 262.039062 121.894531 266.070312 118.753906 C 272.261719 113.917969 278.519531 112.199219 282.808594 107.832031 C 283.933594 101.445312 278.789062 102.148438 278.441406 96.921875 C 278.03125 90.675781 285.058594 84.128906 289.367188 83.820312 C 302.839844 82.851562 320.015625 115.4375 301.738281 122.390625 C 292.90625 115.054688 286.503906 122.632812 276.988281 129.667969 C 271.527344 133.707031 266.460938 137.796875 262.429688 140.582031 C 266.75 155.1875 274.601562 166.253906 275.53125 184.25 C 289.109375 185.695312 303.921875 186.367188 311.933594 187.890625 C 315.175781 184.335938 315.875 178.242188 320.667969 176.242188 C 337.425781 182.339844 339.886719 213.945312 321.398438 219.910156 C 317.398438 219.050781 313.601562 218 311.203125 215.542969 C 311.46875 212.0625 309.230469 208.226562 311.203125 205.355469 C 305.367188 198.78125 288.414062 199.070312 280.628906 203.898438 C 278.464844 217.804688 277.230469 231.675781 269.707031 242.46875 C 275.835938 252.597656 283.988281 260.699219 290.820312 270.121094 C 297.722656 269.542969 308.691406 257.144531 311.933594 268.667969 C 315.164062 280.167969 300.050781 293.246094 292.277344 297.777344 C 287.039062 300.832031 282.492188 303.019531 279.171875 303.597656 C 272.761719 301.273438 272.523438 291.613281 276.257812 286.132812 C 268.003906 279.832031 258.519531 274.753906 252.238281 266.484375 C 244.558594 268.125 240.328125 275.441406 233.308594 278.855469 C 225.160156 282.816406 215.414062 282.652344 205.644531 286.132812 C 206.988281 291.824219 211.835938 294.011719 211.46875 301.414062 C 217.875 301.804688 222.945312 303.523438 223.84375 309.421875 C 221.617188 315.648438 206.550781 329.546875 194.722656 326.160156 C 186.691406 323.859375 188.644531 313.316406 196.179688 310.875 C 194.585938 305.917969 190.839844 303.109375 191.8125 295.59375 C 179.011719 291.03125 159.746094 295.035156 148.859375 284.675781 C 136.757812 294.898438 130.707031 311.164062 120.46875 323.25 C 122.269531 325.570312 124.59375 327.371094 126.292969 329.796875 C 124.410156 356.738281 75.722656 340.539062 92.800781 318.878906 C 96.484375 318.578125 101.628906 320.296875 105.179688 317.425781 C 108.964844 304.710938 113.96875 293.21875 119.738281 282.496094 C 111.238281 274.742188 98.550781 271.167969 96.445312 257.023438 C 88.285156 250.003906 76.914062 258.980469 66.597656 254.839844 C 63.371094 256.953125 61.375 260.292969 62.226562 266.484375 C 59.660156 268.523438 56.792969 270.269531 53.492188 271.578125 C 43.792969 269.46875 38.8125 238.425781 52.765625 241.742188 C 56.613281 242.65625 54.707031 246.332031 57.859375 249.019531 C 66.824219 245.257812 80.191406 248.585938 87.707031 244.652344 C 87.03125 238.046875 84.601562 233.367188 84.066406 226.457031 C 83.628906 220.789062 86.582031 214.058594 85.523438 209.71875 C 83.316406 200.679688 69.128906 203.945312 63.683594 197.347656 C 56.597656 199.695312 51.757812 208.796875 44.027344 202.441406 C 42.382812 195.5625 43.394531 187.382812 46.210938 182.792969 C 49.707031 182.648438 51.542969 180.84375 55.675781 181.339844 C 58.742188 184.335938 58.832031 190.308594 62.226562 192.980469 C 71.667969 194.621094 84.632812 194.695312 92.800781 192.980469 C 95.304688 176.230469 98.789062 158.464844 108.820312 146.40625 C 108.234375 129.640625 91.335938 124.535156 86.25 110.019531 C 80.734375 111.988281 71.238281 114.054688 68.050781 108.5625 C 62.40625 84.597656 95.664062 79.375 89.890625 106.382812 C 99.988281 113.75 108.417969 122.792969 116.101562 132.578125 C 126.789062 125.554688 137.9375 118.992188 151.769531 115.113281 C 144.855469 98.984375 140.273438 80.519531 136.484375 61.261719 C 137.464844 57.570312 141.496094 58.433594 139.394531 53.253906 C 132.742188 48.675781 124.25 52.128906 119.011719 51.070312 C 112.039062 32.953125 149.445312 18.90625 147.402344 43.792969 "/>
<path style=" stroke:none;fill-rule:evenodd;fill:rgb(0%,0%,0%);fill-opacity:1;" d="M 236.21875 160.960938 C 234.503906 160.941406 234.078125 162.214844 231.851562 161.6875 C 231.050781 154.363281 233.332031 146.058594 224.574219 144.222656 C 217.46875 146.585938 220.785156 159.363281 212.921875 160.960938 C 208.675781 154.015625 214.203125 145.636719 216.5625 140.582031 C 227.925781 133.132812 240.792969 146.015625 236.21875 160.960938 "/>
<path style=" stroke:none;fill-rule:evenodd;fill:rgb(0%,0%,0%);fill-opacity:1;" d="M 154.6875 164.601562 C 152.457031 164.070312 152.542969 165.855469 150.316406 165.328125 C 153.203125 151.355469 139.359375 145.144531 134.300781 156.59375 C 131.488281 162.957031 135.664062 170.476562 129.203125 169.695312 C 126.988281 169.425781 126.046875 167.59375 125.5625 165.328125 C 119.902344 138.84375 162.109375 138.941406 154.6875 164.601562 "/>
<path style=" stroke:none;fill-rule:evenodd;fill:rgb(0%,0%,0%);fill-opacity:1;" d="M 257.332031 159.503906 C 257.050781 162.863281 255.421875 164.871094 251.507812 164.601562 C 251.625 163.753906 251.347656 163.304688 250.78125 163.144531 C 251.742188 160.710938 253.894531 159.464844 257.332031 159.503906 "/>
<path style=" stroke:none;fill-rule:evenodd;fill:rgb(0%,0%,0%);fill-opacity:1;" d="M 255.148438 170.421875 C 253.410156 170.945312 248.203125 172.539062 248.597656 168.96875 C 250.066406 165.25 255 165.855469 255.148438 170.421875 "/>
<path style=" stroke:none;fill-rule:evenodd;fill:rgb(0%,0%,0%);fill-opacity:1;" d="M 115.371094 174.789062 C 113.089844 175.71875 108.53125 177.234375 105.90625 175.515625 C 106.394531 171.914062 115.292969 170.503906 115.371094 174.789062 "/>
<path style=" stroke:none;fill-rule:evenodd;fill:rgb(0%,0%,0%);fill-opacity:1;" d="M 110.277344 184.976562 C 107.574219 186.378906 104.722656 185.113281 103.722656 182.792969 C 103.679688 176.375 110.796875 180.570312 110.277344 184.976562 "/>
<path style=" stroke:none;fill-rule:evenodd;fill:rgb(0%,0%,0%);fill-opacity:1;" d="M 196.179688 222.820312 C 191.328125 224.511719 190.664062 229.613281 185.257812 231.550781 C 179.820312 229.878906 179.816406 227.78125 175.796875 227.183594 C 169.851562 226.304688 156.46875 229.554688 151.769531 233.007812 C 146.492188 236.890625 143.6875 253.136719 152.5 254.113281 C 157.691406 254.6875 166.300781 241.433594 177.25 238.828125 C 198.386719 233.800781 205.722656 252.816406 223.117188 252.65625 C 231.117188 233.140625 211.644531 217.421875 196.179688 222.820312 Z M 169.242188 195.890625 C 169.324219 207.386719 184.429688 209.363281 186.71875 198.804688 C 181.035156 198.078125 173.199219 195.949219 169.242188 195.890625 Z M 207.101562 191.523438 C 201.496094 192.71875 198.097656 196.113281 192.539062 197.347656 C 193.011719 212.628906 213.117188 205.941406 207.101562 191.523438 Z M 163.421875 192.980469 C 157.988281 192.105469 152.707031 191.078125 147.402344 190.070312 C 144.316406 203.296875 162.75 202.242188 163.421875 192.980469 Z M 211.46875 200.261719 C 210.988281 213.320312 193.886719 214.539062 188.902344 204.625 C 183.382812 214.269531 166.113281 210.210938 164.148438 200.261719 C 158.117188 207.578125 142.050781 204.921875 142.308594 193.710938 C 107.472656 191.367188 112.242188 254.796875 143.035156 250.472656 C 137.824219 227.140625 165.710938 219.574219 185.257812 225.734375 C 199.957031 209.078125 232.148438 220.378906 229.667969 247.5625 C 230.816406 247.632812 232.191406 247.464844 231.851562 249.019531 C 258.976562 242.980469 257.714844 193.84375 230.394531 188.617188 C 231.269531 196.753906 220.574219 204.566406 211.46875 200.261719 Z M 211.46875 187.890625 C 212.042969 191.4375 212.882812 194.722656 215.105469 196.621094 C 223.851562 197.40625 226.457031 191.789062 223.84375 184.976562 C 218.71875 184.949219 215.300781 186.625 211.46875 187.890625 Z M 222.390625 182.066406 C 222.257812 182.078125 222.742188 181.390625 223.117188 181.339844 C 253.558594 176.792969 269.167969 227.105469 247.140625 248.289062 C 239.792969 255.355469 227.191406 258.363281 218.019531 256.296875 C 206.492188 253.699219 198.800781 243.148438 185.257812 242.46875 C 166.824219 241.542969 164.222656 255.996094 151.042969 259.9375 C 118.617188 269.632812 106.128906 226.402344 118.285156 200.988281 C 126.925781 182.914062 146.820312 183.792969 167.789062 190.070312 C 174.625 192.117188 181.589844 195.609375 190.355469 194.4375 C 203.046875 192.742188 206.457031 183.5 222.390625 182.066406 "/>
<path style=" stroke:none;fill-rule:evenodd;fill:rgb(100%,98.039246%,87.059021%);fill-opacity:1;" d="M 223.84375 184.976562 C 226.457031 191.789062 223.851562 197.40625 215.105469 196.621094 C 212.882812 194.722656 212.042969 191.4375 211.46875 187.890625 C 215.300781 186.625 218.71875 184.949219 223.84375 184.976562 "/>
<path style=" stroke:none;fill-rule:evenodd;fill:rgb(84.709167%,38.038635%,38.038635%);fill-opacity:1;" d="M 230.394531 188.617188 C 257.714844 193.84375 258.976562 242.980469 231.851562 249.019531 C 232.191406 247.464844 230.816406 247.632812 229.667969 247.5625 C 232.148438 220.378906 199.957031 209.078125 185.257812 225.734375 C 165.710938 219.574219 137.824219 227.140625 143.035156 250.472656 C 112.242188 254.796875 107.472656 191.367188 142.308594 193.710938 C 142.050781 204.921875 158.117188 207.578125 164.148438 200.261719 C 166.113281 210.210938 183.382812 214.269531 188.902344 204.625 C 193.886719 214.539062 210.988281 213.320312 211.46875 200.261719 C 220.574219 204.566406 231.269531 196.753906 230.394531 188.617188 "/>
<path style=" stroke:none;fill-rule:evenodd;fill:rgb(100%,98.039246%,87.059021%);fill-opacity:1;" d="M 147.402344 190.070312 C 152.707031 191.078125 157.988281 192.105469 163.421875 192.980469 C 162.75 202.242188 144.316406 203.296875 147.402344 190.070312 "/>
<path style=" stroke:none;fill-rule:evenodd;fill:rgb(100%,98.039246%,87.059021%);fill-opacity:1;" d="M 192.539062 197.347656 C 198.097656 196.113281 201.496094 192.71875 207.101562 191.523438 C 213.117188 205.941406 193.011719 212.628906 192.539062 197.347656 "/>
<path style=" stroke:none;fill-rule:evenodd;fill:rgb(100%,98.039246%,87.059021%);fill-opacity:1;" d="M 186.71875 198.804688 C 184.429688 209.363281 169.324219 207.386719 169.242188 195.890625 C 173.199219 195.949219 181.035156 198.078125 186.71875 198.804688 "/>
<path style=" stroke:none;fill-rule:evenodd;fill:rgb(0%,0%,0%);fill-opacity:1;" d="M 96.445312 217.726562 C 96.539062 219.519531 96.554688 221.230469 95.71875 222.09375 C 94.746094 222.09375 93.773438 222.09375 92.800781 222.09375 C 90.480469 218.492188 94.527344 215.855469 96.445312 217.726562 "/>
<path style=" stroke:none;fill-rule:evenodd;fill:rgb(100%,59.999084%,59.999084%);fill-opacity:1;" d="M 223.117188 252.65625 C 205.722656 252.816406 198.386719 233.800781 177.25 238.828125 C 166.300781 241.433594 157.691406 254.6875 152.5 254.113281 C 143.6875 253.136719 146.492188 236.890625 151.769531 233.007812 C 156.46875 229.554688 169.851562 226.304688 175.796875 227.183594 C 179.816406 227.78125 179.820312 229.878906 185.257812 231.550781 C 190.664062 229.613281 191.328125 224.511719 196.179688 222.820312 C 211.644531 217.421875 231.117188 233.140625 223.117188 252.65625 "/>
<path style=" stroke:none;fill-rule:evenodd;fill:rgb(0%,0%,0%);fill-opacity:1;" d="M 105.179688 230.09375 C 105.390625 233.21875 101.75 232.488281 101.539062 235.191406 C 99.859375 234.445312 97.664062 234.210938 97.902344 231.550781 C 99.648438 229.980469 103.09375 229.304688 105.179688 230.09375 "/>
<path style=" stroke:none;fill-rule:evenodd;fill:rgb(0%,0%,0%);fill-opacity:1;" d="M 188.902344 264.300781 C 188.238281 266.851562 184.027344 268.714844 181.617188 267.210938 C 181.527344 265.90625 182.511719 265.675781 182.347656 264.300781 C 184.4375 263.589844 187.671875 261.898438 188.902344 264.300781 "/>
<path style=" stroke:none;fill-rule:evenodd;fill:rgb(0%,0%,0%);fill-opacity:1;" d="M 186.71875 275.945312 C 183.785156 277.972656 179.980469 275.703125 177.980469 274.492188 C 178.117188 269.601562 186.730469 272.132812 186.71875 275.945312 "/>
<g clip-path="url(#clip1)" clip-rule="nonzero">
<path style=" stroke:none;fill-rule:evenodd;fill:rgb(0%,0%,0%);fill-opacity:1;" d="M 119.011719 51.070312 C 124.25 52.128906 132.742188 48.675781 139.394531 53.253906 C 141.496094 58.433594 137.464844 57.570312 136.484375 61.261719 C 140.273438 80.519531 144.855469 98.984375 151.769531 115.113281 C 137.9375 118.992188 126.789062 125.554688 116.101562 132.578125 C 108.417969 122.792969 99.988281 113.75 89.890625 106.382812 C 95.664062 79.375 62.40625 84.597656 68.050781 108.5625 C 71.238281 114.054688 80.734375 111.988281 86.25 110.019531 C 91.335938 124.535156 108.234375 129.640625 108.820312 146.40625 C 98.789062 158.464844 95.304688 176.230469 92.800781 192.980469 C 84.632812 194.695312 71.667969 194.621094 62.226562 192.980469 C 58.832031 190.308594 58.742188 184.335938 55.675781 181.339844 C 51.542969 180.84375 49.707031 182.648438 46.210938 182.792969 C 43.394531 187.382812 42.382812 195.5625 44.027344 202.441406 C 51.757812 208.796875 56.597656 199.695312 63.683594 197.347656 C 69.128906 203.945312 83.316406 200.679688 85.523438 209.71875 C 86.582031 214.058594 83.628906 220.789062 84.066406 226.457031 C 84.601562 233.367188 87.03125 238.046875 87.707031 244.652344 C 80.191406 248.585938 66.824219 245.257812 57.859375 249.019531 C 54.707031 246.332031 56.613281 242.65625 52.765625 241.742188 C 38.8125 238.425781 43.792969 269.46875 53.492188 271.578125 C 56.792969 270.269531 59.660156 268.523438 62.226562 266.484375 C 61.375 260.292969 63.371094 256.953125 66.597656 254.839844 C 76.914062 258.980469 88.285156 250.003906 96.445312 257.023438 C 98.550781 271.167969 111.238281 274.742188 119.738281 282.496094 C 113.96875 293.21875 108.964844 304.710938 105.179688 317.425781 C 101.628906 320.296875 96.484375 318.578125 92.800781 318.878906 C 75.722656 340.539062 124.410156 356.738281 126.292969 329.796875 C 124.59375 327.371094 122.269531 325.570312 120.46875 323.25 C 130.707031 311.164062 136.757812 294.898438 148.859375 284.675781 C 159.746094 295.035156 179.011719 291.03125 191.8125 295.59375 C 190.839844 303.109375 194.585938 305.917969 196.179688 310.875 C 188.644531 313.316406 186.691406 323.859375 194.722656 326.160156 C 206.550781 329.546875 221.617188 315.648438 223.84375 309.421875 C 222.945312 303.523438 217.875 301.804688 211.46875 301.414062 C 211.835938 294.011719 206.988281 291.824219 205.644531 286.132812 C 215.414062 282.652344 225.160156 282.816406 233.308594 278.855469 C 240.328125 275.441406 244.558594 268.125 252.238281 266.484375 C 258.519531 274.753906 268.003906 279.832031 276.257812 286.132812 C 272.523438 291.613281 272.761719 301.273438 279.171875 303.597656 C 282.492188 303.019531 287.039062 300.832031 292.277344 297.777344 C 300.050781 293.246094 315.164062 280.167969 311.933594 268.667969 C 308.691406 257.144531 297.722656 269.542969 290.820312 270.121094 C 283.988281 260.699219 275.835938 252.597656 269.707031 242.46875 C 277.230469 231.675781 278.464844 217.804688 280.628906 203.898438 C 288.414062 199.070312 305.367188 198.78125 311.203125 205.355469 C 309.230469 208.226562 311.46875 212.0625 311.203125 215.542969 C 313.601562 218 317.398438 219.050781 321.398438 219.910156 C 339.886719 213.945312 337.425781 182.339844 320.667969 176.242188 C 315.875 178.242188 315.175781 184.335938 311.933594 187.890625 C 303.921875 186.367188 289.109375 185.695312 275.53125 184.25 C 274.601562 166.253906 266.75 155.1875 262.429688 140.582031 C 266.460938 137.796875 271.527344 133.707031 276.988281 129.667969 C 286.503906 122.632812 292.90625 115.054688 301.738281 122.390625 C 320.015625 115.4375 302.839844 82.851562 289.367188 83.820312 C 285.058594 84.128906 278.03125 90.675781 278.441406 96.921875 C 278.789062 102.148438 283.933594 101.445312 282.808594 107.832031 C 278.519531 112.199219 272.261719 113.917969 266.070312 118.753906 C 262.039062 121.894531 255.785156 131.582031 250.054688 130.398438 C 246.410156 129.640625 244.878906 122.113281 241.316406 118.753906 C 238.5625 116.152344 236.125 116.796875 234.035156 113.65625 C 230.109375 112.972656 225.707031 112.765625 223.117188 110.746094 C 222.558594 98.542969 224.949219 89.292969 226.757812 79.453125 C 229.683594 77.527344 233.679688 76.671875 236.21875 74.359375 C 237.921875 63.925781 230.699219 62.414062 224.574219 59.804688 C 219.367188 63.746094 205.363281 64.429688 210.011719 73.632812 C 213.84375 75.257812 216.121094 71.867188 220.203125 74.359375 C 218.898438 86.460938 213.84375 96.816406 212.921875 107.109375 C 207.628906 109.707031 201.671875 105.019531 194.722656 104.199219 C 181.679688 102.644531 167.835938 106.707031 156.867188 108.5625 C 149.128906 91.074219 146.828125 68.144531 140.851562 48.890625 C 141.835938 45.988281 146.050781 46.324219 147.402344 43.792969 C 149.445312 18.90625 112.039062 32.953125 119.011719 51.070312 Z M 149.585938 52.527344 C 155.4375 66.570312 155.90625 85.988281 161.964844 99.832031 C 176.679688 98.8125 188.214844 93.949219 203.460938 99.101562 C 207.691406 95.328125 208.699219 88.332031 210.738281 82.363281 C 208.742188 80.675781 203.769531 79.679688 201.277344 76.542969 C 197.25 52.347656 233.691406 47.210938 243.5 64.171875 C 242.933594 68.863281 244.582031 71.335938 244.226562 75.8125 C 241.28125 79.667969 237.328125 82.503906 233.308594 85.277344 C 231.136719 90.382812 231.992188 98.515625 230.394531 104.199219 C 238.375 109.5625 248.75 112.535156 252.964844 121.664062 C 259.988281 117.042969 265.128906 110.535156 273.347656 107.109375 C 267.613281 99.335938 273.792969 82.078125 282.085938 78.726562 C 307.800781 68.335938 327.609375 110.007812 309.746094 128.214844 C 305.515625 130.636719 295.394531 130.539062 293.734375 126.027344 C 286.484375 132.125 276.742188 135.730469 271.164062 143.496094 C 276.125 154.304688 279.75 166.445312 283.539062 178.425781 C 291.890625 177.003906 298.214844 181.378906 306.109375 179.152344 C 312.097656 177.464844 317.863281 164.871094 327.949219 171.152344 C 340.074219 181.277344 346.546875 201.21875 335.957031 216.269531 C 330.402344 224.160156 313.40625 232.550781 305.378906 222.09375 C 305.023438 216.621094 303.183594 212.644531 301.738281 208.261719 C 296.625 208.769531 293.75 207.035156 288.636719 207.539062 C 289.210938 216.097656 279.875 233.519531 280.628906 243.199219 C 281.34375 252.355469 290.851562 254.199219 293.734375 262.117188 C 301.804688 256.003906 315.207031 255.859375 318.484375 265.027344 C 319.574219 268.082031 317.367188 284.089844 315.570312 288.316406 C 309.226562 303.28125 287.363281 311.378906 275.53125 310.144531 C 266.574219 309.21875 260.191406 300.800781 264.609375 289.042969 C 260.296875 283.898438 253.464844 281.261719 250.054688 275.214844 C 240.140625 282.289062 228.28125 287.417969 215.835938 291.953125 C 219.804688 300.046875 230.125 295.652344 231.125 305.78125 C 232.128906 315.984375 210.203125 336.863281 191.8125 332.710938 C 186.566406 331.527344 181.546875 324.644531 181.617188 318.878906 C 181.714844 311.390625 189.097656 312.078125 185.988281 302.144531 C 171.417969 300.535156 159.671875 300.433594 148.132812 296.324219 C 140.867188 302.644531 137.070312 312.429688 132.117188 321.066406 C 136.089844 331.097656 132.464844 343.480469 122.652344 347.992188 C 117.9375 350.15625 110.132812 352.308594 107.363281 352.355469 C 95.1875 352.566406 82.253906 340.976562 81.882812 329.796875 C 81.539062 319.554688 89.597656 310.417969 98.628906 310.144531 C 103.863281 303.257812 106.101562 293.363281 111.003906 286.132812 C 102.246094 278.632812 92.824219 271.800781 86.980469 261.386719 C 82.363281 262.292969 77.546875 261.25 71.691406 263.570312 C 67.734375 270.128906 64.382812 278.71875 56.402344 279.582031 C 45.078125 280.8125 33.046875 259.441406 35.292969 249.019531 C 36.523438 243.300781 42.128906 239.21875 46.210938 235.191406 C 54.445312 234.480469 60.988281 235.457031 62.953125 241.015625 C 66.65625 238.722656 72.5625 240.347656 78.246094 238.828125 C 77 228.921875 75.246094 222.46875 76.789062 211.902344 C 73.878906 208.019531 66.578125 208.527344 62.953125 205.355469 C 59.558594 211.417969 51.414062 212.734375 41.84375 212.628906 C 33.179688 205.753906 31.320312 187.1875 40.386719 179.152344 C 43.742188 176.183594 52.980469 172.769531 57.132812 173.332031 C 63.621094 174.210938 64.539062 181.152344 68.050781 186.429688 C 74.089844 187.609375 78.058594 187.738281 83.339844 185.707031 C 89.691406 171.921875 94.09375 156.1875 100.085938 142.039062 C 95.367188 133.167969 86.675781 128.273438 81.882812 119.480469 C 76.40625 123.070312 66.664062 121.523438 61.5 118.753906 C 47.460938 99.734375 68.894531 71.964844 92.078125 83.820312 C 94.894531 89.980469 100.394531 93.457031 99.355469 103.46875 C 106.757812 108.929688 114.027344 114.515625 120.46875 120.933594 C 127 117.277344 133.972656 114.058594 140.851562 110.746094 C 135.765625 94.726562 131.726562 77.660156 128.476562 59.804688 C 115.332031 59.171875 109.003906 54.398438 110.277344 43.792969 C 111.699219 31.914062 124.984375 20.683594 139.394531 21.960938 C 151.078125 23 157.511719 35.609375 155.414062 47.429688 C 154.632812 50.292969 151.328125 50.625 149.585938 52.527344 "/>
</g>
</g>
</svg>
