<?xml version="1.0" encoding="UTF-8"?>
<svg xmlns="http://www.w3.org/2000/svg" xmlns:xlink="http://www.w3.org/1999/xlink" width="224.87999pt" height="225pt" viewBox="0 0 224.87999 225" version="1.2">
<defs>
<clipPath id="clip1">
  <path d="M 67.464844 77.171875 L 157.414062 77.171875 L 157.414062 147.449219 L 67.464844 147.449219 Z M 67.464844 77.171875 "/>
</clipPath>
</defs>
<g id="surface1">
<g clip-path="url(#clip1)" clip-rule="nonzero">
<path style=" stroke:none;fill-rule:evenodd;fill:rgb(0%,0%,0%);fill-opacity:1;" d="M 144.746094 83.5625 L 80.132812 83.5625 L 110.480469 106.78125 C 111.636719 107.667969 113.242188 107.667969 114.398438 106.78125 Z M 73.902344 86.855469 L 73.902344 141.058594 L 150.976562 141.058594 L 150.976562 86.855469 L 118.3125 111.847656 C 114.851562 114.496094 110.027344 114.496094 106.566406 111.847656 Z M 67.480469 83.5625 C 67.480469 80.035156 70.355469 77.171875 73.902344 77.171875 L 150.976562 77.171875 C 154.523438 77.171875 157.398438 80.035156 157.398438 83.5625 L 157.398438 141.058594 C 157.398438 144.589844 154.523438 147.449219 150.976562 147.449219 L 73.902344 147.449219 C 70.355469 147.449219 67.480469 144.589844 67.480469 141.058594 Z M 67.480469 83.5625 "/>
</g>
</g>
</svg>
