<?xml version="1.0" encoding="UTF-8"?>
<svg xmlns="http://www.w3.org/2000/svg" xmlns:xlink="http://www.w3.org/1999/xlink" width="375pt" height="374.999991pt" viewBox="0 0 375 374.999991" version="1.2">
<defs>
<filter id="alpha" filterUnits="objectBoundingBox" x="0%" y="0%" width="100%" height="100%">
  <feColorMatrix type="matrix" in="SourceGraphic" values="0 0 0 0 1 0 0 0 0 1 0 0 0 0 1 0 0 0 1 0"/>
</filter>
<mask id="mask0">
  <g filter="url(#alpha)">
<rect x="0" y="0" width="375" height="374.999991" style="fill:rgb(0%,0%,0%);fill-opacity:0.5176;stroke:none;"/>
  </g>
</mask>
<clipPath id="clip2">
  <path d="M 3.5 3.5 L 153.5 3.5 L 153.5 153.5 L 3.5 153.5 Z M 3.5 3.5 "/>
</clipPath>
<clipPath id="clip3">
  <path d="M 3.5 3.5 L 153.5 3.5 L 153.5 153.5 L 3.5 153.5 Z M 3.5 3.5 "/>
</clipPath>
<clipPath id="clip1">
  <rect x="0" y="0" width="157" height="157"/>
</clipPath>
<g id="surface5" clip-path="url(#clip1)">
<g clip-path="url(#clip2)" clip-rule="nonzero">
<path style=" stroke:none;fill-rule:nonzero;fill:rgb(100%,56.858826%,30.198669%);fill-opacity:1;" d="M 78.5 3.5 C 77.273438 3.5 76.046875 3.53125 74.820312 3.589844 C 73.59375 3.652344 72.371094 3.742188 71.148438 3.859375 C 69.925781 3.980469 68.710938 4.132812 67.496094 4.3125 C 66.28125 4.492188 65.070312 4.703125 63.867188 4.941406 C 62.664062 5.179688 61.46875 5.449219 60.277344 5.746094 C 59.085938 6.046875 57.902344 6.375 56.730469 6.730469 C 55.554688 7.085938 54.390625 7.46875 53.234375 7.882812 C 52.078125 8.296875 50.933594 8.738281 49.796875 9.210938 C 48.664062 9.679688 47.542969 10.175781 46.433594 10.699219 C 45.324219 11.226562 44.226562 11.777344 43.144531 12.355469 C 42.0625 12.933594 40.996094 13.539062 39.941406 14.171875 C 38.890625 14.800781 37.851562 15.457031 36.832031 16.140625 C 35.8125 16.820312 34.808594 17.527344 33.824219 18.257812 C 32.835938 18.992188 31.871094 19.746094 30.921875 20.523438 C 29.972656 21.304688 29.042969 22.105469 28.132812 22.929688 C 27.222656 23.753906 26.335938 24.597656 25.46875 25.46875 C 24.597656 26.335938 23.753906 27.222656 22.929688 28.132812 C 22.105469 29.042969 21.304688 29.972656 20.523438 30.921875 C 19.746094 31.871094 18.992188 32.835938 18.257812 33.824219 C 17.527344 34.808594 16.820312 35.8125 16.140625 36.832031 C 15.457031 37.851562 14.800781 38.890625 14.171875 39.941406 C 13.539062 40.996094 12.933594 42.0625 12.355469 43.144531 C 11.777344 44.226562 11.226562 45.324219 10.699219 46.433594 C 10.175781 47.542969 9.679688 48.664062 9.210938 49.796875 C 8.738281 50.933594 8.296875 52.078125 7.882812 53.234375 C 7.46875 54.390625 7.085938 55.554688 6.730469 56.730469 C 6.375 57.902344 6.046875 59.085938 5.746094 60.277344 C 5.449219 61.46875 5.179688 62.664062 4.941406 63.867188 C 4.703125 65.070312 4.492188 66.28125 4.3125 67.496094 C 4.132812 68.710938 3.980469 69.925781 3.859375 71.148438 C 3.742188 72.371094 3.652344 73.59375 3.589844 74.820312 C 3.53125 76.046875 3.5 77.273438 3.5 78.5 C 3.5 79.726562 3.53125 80.953125 3.589844 82.179688 C 3.652344 83.40625 3.742188 84.628906 3.859375 85.851562 C 3.980469 87.074219 4.132812 88.289062 4.3125 89.503906 C 4.492188 90.71875 4.703125 91.929688 4.941406 93.132812 C 5.179688 94.335938 5.449219 95.53125 5.746094 96.722656 C 6.046875 97.914062 6.375 99.097656 6.730469 100.269531 C 7.085938 101.445312 7.46875 102.609375 7.882812 103.765625 C 8.296875 104.921875 8.738281 106.066406 9.210938 107.203125 C 9.679688 108.335938 10.175781 109.457031 10.699219 110.566406 C 11.226562 111.675781 11.777344 112.773438 12.355469 113.855469 C 12.933594 114.9375 13.539062 116.003906 14.171875 117.058594 C 14.800781 118.109375 15.457031 119.148438 16.140625 120.167969 C 16.820312 121.1875 17.527344 122.191406 18.257812 123.175781 C 18.992188 124.164062 19.746094 125.128906 20.523438 126.078125 C 21.304688 127.027344 22.105469 127.957031 22.929688 128.867188 C 23.753906 129.777344 24.597656 130.664062 25.46875 131.53125 C 26.335938 132.402344 27.222656 133.246094 28.132812 134.070312 C 29.042969 134.894531 29.972656 135.695312 30.921875 136.476562 C 31.871094 137.253906 32.835938 138.007812 33.824219 138.742188 C 34.808594 139.472656 35.8125 140.179688 36.832031 140.859375 C 37.851562 141.542969 38.890625 142.199219 39.941406 142.828125 C 40.996094 143.460938 42.0625 144.066406 43.144531 144.644531 C 44.226562 145.222656 45.324219 145.773438 46.433594 146.300781 C 47.542969 146.824219 48.664062 147.320312 49.796875 147.789062 C 50.933594 148.261719 52.078125 148.703125 53.234375 149.117188 C 54.390625 149.527344 55.554688 149.914062 56.730469 150.269531 C 57.902344 150.625 59.085938 150.953125 60.277344 151.253906 C 61.46875 151.550781 62.664062 151.820312 63.867188 152.058594 C 65.070312 152.296875 66.28125 152.507812 67.496094 152.6875 C 68.710938 152.867188 69.925781 153.019531 71.148438 153.140625 C 72.371094 153.257812 73.59375 153.347656 74.820312 153.410156 C 76.046875 153.46875 77.273438 153.5 78.5 153.5 C 79.726562 153.5 80.953125 153.46875 82.179688 153.410156 C 83.40625 153.347656 84.628906 153.257812 85.851562 153.140625 C 87.074219 153.019531 88.289062 152.867188 89.503906 152.6875 C 90.71875 152.507812 91.929688 152.296875 93.132812 152.058594 C 94.335938 151.820312 95.53125 151.550781 96.722656 151.253906 C 97.914062 150.953125 99.097656 150.625 100.269531 150.269531 C 101.445312 149.914062 102.609375 149.527344 103.765625 149.117188 C 104.921875 148.703125 106.066406 148.261719 107.203125 147.789062 C 108.335938 147.320312 109.457031 146.824219 110.566406 146.300781 C 111.675781 145.773438 112.773438 145.222656 113.855469 144.644531 C 114.9375 144.066406 116.003906 143.460938 117.058594 142.828125 C 118.109375 142.199219 119.148438 141.542969 120.167969 140.859375 C 121.1875 140.179688 122.191406 139.472656 123.175781 138.742188 C 124.164062 138.007812 125.128906 137.253906 126.078125 136.476562 C 127.027344 135.695312 127.957031 134.894531 128.867188 134.070312 C 129.777344 133.246094 130.664062 132.402344 131.53125 131.53125 C 132.402344 130.664062 133.246094 129.777344 134.070312 128.867188 C 134.894531 127.957031 135.695312 127.027344 136.476562 126.078125 C 137.253906 125.128906 138.007812 124.164062 138.742188 123.175781 C 139.472656 122.191406 140.179688 121.1875 140.859375 120.167969 C 141.542969 119.148438 142.199219 118.109375 142.828125 117.058594 C 143.460938 116.003906 144.066406 114.9375 144.644531 113.855469 C 145.222656 112.773438 145.773438 111.675781 146.300781 110.566406 C 146.824219 109.457031 147.320312 108.335938 147.789062 107.203125 C 148.261719 106.066406 148.703125 104.921875 149.117188 103.765625 C 149.527344 102.609375 149.914062 101.445312 150.269531 100.269531 C 150.625 99.097656 150.953125 97.914062 151.253906 96.722656 C 151.550781 95.53125 151.820312 94.335938 152.058594 93.132812 C 152.296875 91.929688 152.507812 90.71875 152.6875 89.503906 C 152.867188 88.289062 153.019531 87.074219 153.140625 85.851562 C 153.257812 84.628906 153.347656 83.40625 153.410156 82.179688 C 153.46875 80.953125 153.5 79.726562 153.5 78.5 C 153.5 77.273438 153.46875 76.046875 153.40625 74.820312 C 153.34375 73.59375 153.253906 72.371094 153.132812 71.152344 C 153.007812 69.929688 152.859375 68.714844 152.675781 67.5 C 152.496094 66.285156 152.285156 65.078125 152.042969 63.875 C 151.804688 62.671875 151.535156 61.472656 151.234375 60.285156 C 150.9375 59.09375 150.609375 57.910156 150.25 56.738281 C 149.894531 55.5625 149.507812 54.398438 149.09375 53.246094 C 148.679688 52.089844 148.238281 50.945312 147.769531 49.8125 C 147.296875 48.679688 146.800781 47.558594 146.273438 46.449219 C 145.75 45.339844 145.199219 44.242188 144.617188 43.160156 C 144.039062 42.078125 143.433594 41.011719 142.804688 39.960938 C 142.171875 38.910156 141.515625 37.871094 140.835938 36.851562 C 140.152344 35.832031 139.445312 34.828125 138.714844 33.84375 C 137.984375 32.859375 137.226562 31.890625 136.449219 30.941406 C 135.671875 29.996094 134.871094 29.066406 134.046875 28.15625 C 133.222656 27.246094 132.375 26.359375 131.507812 25.492188 C 130.640625 24.625 129.753906 23.777344 128.84375 22.953125 C 127.933594 22.128906 127.003906 21.328125 126.058594 20.550781 C 125.109375 19.773438 124.140625 19.015625 123.15625 18.285156 C 122.171875 17.554688 121.167969 16.847656 120.148438 16.164062 C 119.128906 15.484375 118.089844 14.828125 117.039062 14.195312 C 115.988281 13.566406 114.917969 12.960938 113.839844 12.378906 C 112.757812 11.800781 111.660156 11.25 110.550781 10.726562 C 109.441406 10.199219 108.320312 9.703125 107.1875 9.230469 C 106.054688 8.761719 104.910156 8.320312 103.753906 7.90625 C 102.601562 7.492188 101.4375 7.105469 100.261719 6.75 C 99.089844 6.390625 97.90625 6.0625 96.714844 5.765625 C 95.527344 5.464844 94.328125 5.195312 93.125 4.957031 C 91.921875 4.714844 90.714844 4.503906 89.5 4.324219 C 88.285156 4.140625 87.070312 3.992188 85.847656 3.867188 C 84.628906 3.746094 83.40625 3.65625 82.179688 3.59375 C 80.953125 3.53125 79.726562 3.5 78.5 3.5 Z M 78.5 3.5 "/>
</g>
<path style=" stroke:none;fill-rule:nonzero;fill:rgb(49.409485%,85.099792%,34.118652%);fill-opacity:1;" d="M 127.164062 83.777344 C 126.914062 83.167969 126.511719 82.679688 125.964844 82.3125 C 125.414062 81.945312 124.8125 81.761719 124.152344 81.761719 L 101.324219 81.761719 L 101.324219 32.898438 C 101.324219 32.46875 101.242188 32.050781 101.078125 31.652344 C 100.914062 31.253906 100.675781 30.898438 100.371094 30.59375 C 100.066406 30.289062 99.710938 30.054688 99.3125 29.886719 C 98.914062 29.722656 98.496094 29.640625 98.066406 29.640625 L 58.933594 29.640625 C 58.503906 29.640625 58.085938 29.722656 57.6875 29.886719 C 57.289062 30.054688 56.933594 30.289062 56.628906 30.59375 C 56.324219 30.898438 56.085938 31.253906 55.921875 31.652344 C 55.757812 32.050781 55.675781 32.46875 55.675781 32.898438 L 55.675781 81.761719 L 32.847656 81.761719 C 32.1875 81.757812 31.582031 81.941406 31.03125 82.308594 C 30.484375 82.675781 30.082031 83.164062 29.828125 83.773438 C 29.578125 84.382812 29.515625 85.011719 29.644531 85.660156 C 29.773438 86.308594 30.070312 86.863281 30.539062 87.332031 L 76.191406 133.035156 C 76.496094 133.339844 76.851562 133.574219 77.25 133.742188 C 77.648438 133.90625 78.0625 133.988281 78.496094 133.988281 C 78.929688 133.988281 79.34375 133.90625 79.746094 133.742188 C 80.144531 133.574219 80.496094 133.339844 80.800781 133.035156 L 126.453125 87.332031 C 126.921875 86.863281 127.21875 86.308594 127.347656 85.660156 C 127.480469 85.015625 127.417969 84.386719 127.164062 83.777344 Z M 127.164062 83.777344 "/>
<path style="fill:none;stroke-width:1;stroke-linecap:round;stroke-linejoin:round;stroke:rgb(0%,0%,0%);stroke-opacity:1;stroke-miterlimit:4;" d="M 15.000184 5.007762 L 8.999819 5.007762 L 8.999819 13.000262 L 4.999974 13.000262 L 12.000001 20.008076 L 19.000028 13.000262 L 15.000184 13.000262 Z M 15.000184 5.007762 " transform="matrix(6.521738,0,0,6.521738,0.239131,0.239126)"/>
<g clip-path="url(#clip3)" clip-rule="nonzero">
<path style="fill:none;stroke-width:1;stroke-linecap:round;stroke-linejoin:round;stroke:rgb(0%,0%,0%);stroke-opacity:1;stroke-miterlimit:4;" d="M 22.999872 12.000002 C 22.999872 12.180288 22.995679 12.359976 22.986695 12.539663 C 22.977711 12.719351 22.964534 12.899038 22.947164 13.078127 C 22.929195 13.257216 22.907633 13.435705 22.880679 13.614195 C 22.854325 13.792085 22.823778 13.969377 22.78844 14.14607 C 22.7537 14.322763 22.714169 14.498257 22.670445 14.672554 C 22.626721 14.84745 22.578804 15.021148 22.526096 15.193049 C 22.473987 15.365549 22.417685 15.536252 22.35719 15.705758 C 22.296096 15.875263 22.231409 16.042971 22.162528 16.209482 C 22.093648 16.375992 22.020575 16.540107 21.943909 16.703023 C 21.866643 16.86594 21.785783 17.026461 21.70133 17.185185 C 21.616278 17.343909 21.527632 17.500836 21.434794 17.655367 C 21.342554 17.809299 21.246122 17.961435 21.146096 18.111174 C 21.04607 18.260914 20.94245 18.408258 20.835237 18.552607 C 20.728023 18.697555 20.617216 18.838909 20.503414 18.978466 C 20.389013 19.117425 20.271617 19.253987 20.150627 19.386956 C 20.029637 19.520524 19.905653 19.651096 19.778075 19.778076 C 19.651096 19.905654 19.520523 20.029638 19.386955 20.150628 C 19.253986 20.271617 19.117424 20.389013 18.978465 20.503414 C 18.838908 20.617216 18.697554 20.728024 18.552606 20.835237 C 18.408257 20.942451 18.260913 21.046071 18.111174 21.146097 C 17.961434 21.246123 17.809299 21.342555 17.655366 21.434795 C 17.500835 21.527633 17.343908 21.616279 17.185184 21.701331 C 17.02646 21.785784 16.865939 21.866644 16.703023 21.943909 C 16.540106 22.020576 16.375991 22.093649 16.209481 22.162529 C 16.04297 22.231409 15.875262 22.296097 15.705757 22.35719 C 15.536252 22.417685 15.365548 22.473987 15.193048 22.526097 C 15.021147 22.578805 14.847449 22.626722 14.672554 22.670446 C 14.498257 22.71417 14.322762 22.753701 14.146069 22.788441 C 13.969376 22.823779 13.792085 22.854326 13.614194 22.88068 C 13.435704 22.907633 13.257215 22.929196 13.078126 22.947165 C 12.899038 22.964534 12.71935 22.977711 12.539663 22.986696 C 12.359975 22.99568 12.180288 22.999873 12.000001 22.999873 C 11.819715 22.999873 11.640027 22.99568 11.46034 22.986696 C 11.280652 22.977711 11.100965 22.964534 10.921876 22.947165 C 10.742788 22.929196 10.564298 22.907633 10.385808 22.88068 C 10.207918 22.854326 10.030626 22.823779 9.853933 22.788441 C 9.677241 22.753701 9.501746 22.71417 9.327449 22.670446 C 9.152553 22.626722 8.978855 22.578805 8.806954 22.526097 C 8.634454 22.473987 8.463751 22.417685 8.294246 22.35719 C 8.12474 22.296097 7.957032 22.231409 7.790522 22.162529 C 7.624011 22.093649 7.459897 22.020576 7.29698 21.943909 C 7.134063 21.866644 6.973542 21.785784 6.814818 21.701331 C 6.656094 21.616279 6.499167 21.527633 6.344636 21.434795 C 6.190704 21.342555 6.038568 21.246123 5.888829 21.146097 C 5.739089 21.046071 5.591745 20.942451 5.447396 20.835237 C 5.302448 20.728024 5.161094 20.617216 5.021537 20.503414 C 4.882579 20.389013 4.746016 20.271617 4.613047 20.150628 C 4.47948 20.029638 4.348907 19.905654 4.221927 19.778076 C 4.094349 19.651096 3.970365 19.520524 3.849375 19.386956 C 3.728386 19.253987 3.61099 19.117425 3.496589 18.978466 C 3.382787 18.838909 3.271979 18.697555 3.164766 18.552607 C 3.057552 18.408258 2.953933 18.260914 2.853907 18.111174 C 2.75388 17.961435 2.657448 17.809299 2.565209 17.655367 C 2.47237 17.500836 2.383724 17.343909 2.298672 17.185185 C 2.214219 17.026461 2.13336 16.86594 2.056094 16.703023 C 1.979427 16.540107 1.906354 16.375992 1.837474 16.209482 C 1.768594 16.042971 1.703906 15.875263 1.642813 15.705758 C 1.582318 15.536252 1.526016 15.365549 1.473906 15.193049 C 1.421198 15.021148 1.373281 14.84745 1.329557 14.672554 C 1.285833 14.498257 1.246302 14.322763 1.211563 14.14607 C 1.176224 13.969377 1.145677 13.792085 1.119323 13.614195 C 1.09237 13.435705 1.070807 13.257216 1.052839 13.078127 C 1.035469 12.899038 1.022292 12.719351 1.013307 12.539663 C 1.004323 12.359976 1.00013 12.180288 1.00013 12.000002 C 1.00013 11.819715 1.004323 11.640028 1.013307 11.46034 C 1.022292 11.280653 1.035469 11.100965 1.052839 10.921877 C 1.070807 10.742788 1.09237 10.564299 1.119323 10.385809 C 1.145677 10.207918 1.176224 10.030627 1.211563 9.853934 C 1.246302 9.677241 1.285833 9.501746 1.329557 9.32745 C 1.373281 9.152554 1.421198 8.978856 1.473906 8.806955 C 1.526016 8.634455 1.582318 8.463752 1.642813 8.294246 C 1.703906 8.124741 1.768594 7.957033 1.837474 7.790522 C 1.906354 7.624012 1.979427 7.459897 2.056094 7.296981 C 2.13336 7.134064 2.214219 6.973543 2.298672 6.814819 C 2.383724 6.656095 2.47237 6.499168 2.565209 6.344637 C 2.657448 6.190704 2.75388 6.038569 2.853907 5.888829 C 2.953933 5.73909 3.057552 5.591746 3.164766 5.447397 C 3.271979 5.302449 3.382787 5.161095 3.496589 5.021538 C 3.61099 4.882579 3.728386 4.746017 3.849375 4.613048 C 3.970365 4.47948 4.094349 4.348907 4.221927 4.221928 C 4.348907 4.09435 4.47948 3.970366 4.613047 3.849376 C 4.746016 3.728386 4.882579 3.610991 5.021537 3.49659 C 5.161094 3.382787 5.302448 3.27198 5.447396 3.164767 C 5.591745 3.057553 5.739089 2.953933 5.888829 2.853907 C 6.038568 2.753881 6.190704 2.657449 6.344636 2.565209 C 6.499167 2.472371 6.656094 2.383725 6.814818 2.298673 C 6.973542 2.21422 7.134063 2.13336 7.29698 2.056095 C 7.459897 1.979428 7.624011 1.906355 7.790522 1.837475 C 7.957032 1.768595 8.12474 1.703907 8.294246 1.642813 C 8.463751 1.582319 8.634454 1.526016 8.806954 1.473907 C 8.978855 1.421199 9.152553 1.373282 9.327449 1.329558 C 9.501746 1.285834 9.677241 1.246303 9.853933 1.211563 C 10.030626 1.176225 10.207918 1.145678 10.385808 1.119324 C 10.564298 1.092371 10.742788 1.070808 10.921876 1.052839 C 11.100965 1.03547 11.280652 1.022292 11.46034 1.013308 C 11.640027 1.004324 11.819715 1.000131 12.000001 1.000131 C 12.180288 1.000131 12.359975 1.004324 12.539663 1.013308 C 12.71935 1.022292 12.899038 1.03547 13.078126 1.052839 C 13.257215 1.070808 13.435704 1.092371 13.614194 1.119324 C 13.792085 1.145678 13.969376 1.176225 14.146069 1.211563 C 14.322762 1.246303 14.498257 1.285834 14.672554 1.329558 C 14.847449 1.373282 15.021147 1.421199 15.193048 1.473907 C 15.365548 1.526016 15.536252 1.582319 15.705757 1.642813 C 15.875262 1.703907 16.04297 1.768595 16.209481 1.837475 C 16.375991 1.906355 16.540106 1.979428 16.703023 2.056095 C 16.865939 2.13336 17.02646 2.21422 17.185184 2.298673 C 17.343908 2.383725 17.500835 2.472371 17.655366 2.565209 C 17.809299 2.657449 17.961434 2.753881 18.111174 2.853907 C 18.260913 2.953933 18.408257 3.057553 18.552606 3.164767 C 18.697554 3.27198 18.838908 3.382787 18.978465 3.49659 C 19.117424 3.610991 19.253986 3.728386 19.386955 3.849376 C 19.520523 3.970366 19.651096 4.09435 19.778075 4.221928 C 19.905653 4.348907 20.029637 4.47948 20.150627 4.613048 C 20.271617 4.746017 20.389013 4.882579 20.503414 5.021538 C 20.617216 5.161095 20.728023 5.302449 20.835237 5.447397 C 20.94245 5.591746 21.04607 5.73909 21.146096 5.888829 C 21.246122 6.038569 21.342554 6.190704 21.434794 6.344637 C 21.527632 6.499168 21.616278 6.656095 21.70133 6.814819 C 21.785783 6.973543 21.866643 7.134064 21.943909 7.296981 C 22.020575 7.459897 22.093648 7.624012 22.162528 7.790522 C 22.231409 7.957033 22.296096 8.124741 22.35719 8.294246 C 22.417685 8.463752 22.473987 8.634455 22.526096 8.806955 C 22.578804 8.978856 22.626721 9.152554 22.670445 9.32745 C 22.714169 9.501746 22.7537 9.677241 22.78844 9.853934 C 22.823778 10.030627 22.854325 10.207918 22.880679 10.385809 C 22.907633 10.564299 22.929195 10.742788 22.947164 10.921877 C 22.964534 11.100965 22.977711 11.280653 22.986695 11.46034 C 22.995679 11.640028 22.999872 11.819715 22.999872 12.000002 Z M 22.999872 12.000002 " transform="matrix(6.521738,0,0,6.521738,0.239131,0.239126)"/>
</g>
</g>
</defs>
<g id="surface1">
<use xlink:href="#surface5" transform="matrix(1,0,0,1,109,109)" mask="url(#mask0)"/>
</g>
</svg>
